# xmcd CD database file
#
# Track frame offsets:
#	150
#	27030
#	104089
#	146610
#
# Disc length: 2686 seconds
#
# Revision: 4
# Processed by: cddbd v1.5.2PL0 Copyright (c) Steve Scherf et al.
# Submitted via: CDex 1.70beta2
#
DISCID=310a7c04
DTITLE=Charles Mingus - Changes One
DYEAR=1993
DGENRE=Jazz
TTITLE0=Remember Rockefeller at Attica
TTITLE1=Sue's changes
TTITLE2=Devil blues
TTITLE3=Duke Ellington's sound of love
EXTD=YEAR: 1993
EXTT0=
EXTT1=
EXTT2=
EXTT3=
PLAYORDER=
